<?xml version="1.0" encoding="utf-8"?>
<!-- Generator: Adobe Illustrator 22.0.1, SVG Export Plug-In . SVG Version: 6.00 Build 0)  -->
<svg width="146.6" height="50px" version="1.1" id="Camada_1" xmlns="http://www.w3.org/2000/svg" xmlns:xlink="http://www.w3.org/1999/xlink" x="0px" y="0px"
	 viewBox="0 0 146.6 50" style="enable-background:new 0 0 146.6 50;" xml:space="preserve">
<style type="text/css">
	.st0{fill:#3C3939;}
	.st1{fill:#007A59;}
	.st2{fill:#39A46A;}
</style>
<title>logo_kiper</title>
<path class="st0" d="M105.9,17.4c-3.6-4.5-10.2-5.2-14.7-1.6c-1.7,1.4-3,3.3-3.7,5.4c-0.3,0.7-0.4,1.4-0.6,2.2
	c-0.1,0.8-0.2,1.6-0.3,2.5s-0.1,1.8-0.1,2.7s0,1.8,0,2.6s0,1.6,0,2.2v11.5l0,0V46c0,0.5,0.4,0.9,0.9,0.9h2.6c0.5,0,0.9-0.4,0.9-0.9
	l0,0v-1.1l0,0v-7.8c2,1.5,4.5,2.4,7,2.3c3.3,0.1,6.4-1.4,8.2-4.1c1.8-2.6,2.8-5.8,2.7-9C108.8,23.1,107.8,20,105.9,17.4z
	 M102.7,32.7c-1.1,1.7-2.9,2.6-4.9,2.5c-3.2,0-6.9-1.1-7-8.8c-0.1-2.2,0.6-4.4,2-6.2c1.1-1.6,3-2.5,5-2.4c1.9-0.1,3.8,0.8,4.9,2.4
	c1.2,1.9,1.8,4,1.7,6.2C104.4,28.6,103.8,30.8,102.7,32.7z M83.7,17.5v18.1l0,0v2.6c0,0.5-0.4,0.9-0.9,0.9h-2.5
	c-0.5,0-0.9-0.4-0.9-0.9v-2.5l0,0V17.5c0,0,0,0,0-0.1v-2.6c0-0.5,0.4-0.9,0.9-0.9c0,0,0,0,0,0h2.5c0.5,0,0.9,0.4,0.9,0.9L83.7,17.5
	C83.7,17.4,83.7,17.5,83.7,17.5L83.7,17.5z M131.7,26.7c0.2-3.2-0.6-6.3-2.3-9c-1.8-2.8-4.7-4.2-8.6-4.3c-2.9,0-5.7,1.3-7.5,3.5
	c-2.2,2.2-3.3,5.5-3.3,9.5c-0.1,3.2,0.7,6.3,2.5,9c1.8,2.6,4.6,4,8.4,4l0,0c2.6,0,5.2-0.9,7.2-2.6c1.2-1.1,2.1-2.4,2.6-3.9l0.4-1.1
	l0,0c0-0.1,0-0.1,0-0.2c0-0.4-0.3-0.6-0.6-0.6h-3.1c-0.4,0-0.7,0.2-0.8,0.6l0,0c-1,2.3-2.9,3.5-5.7,3.5c-2.3,0-3.9-0.8-4.9-2.2
	c-0.9-1.4-1.4-3-1.6-4.6h17.3L131.7,26.7z M114.5,24.1c0.2-1.6,0.9-3.1,1.9-4.3c1.1-1.3,2.8-2,4.5-2c1.9-0.1,3.7,0.7,4.8,2.2
	c0.9,1.2,1.4,2.7,1.6,4.2L114.5,24.1z M145.2,17.1L145.2,17.1c0,0.3-0.3,0.6-0.6,0.6l0,0H144c-2.1,0-3.7,0.6-4.6,1.9
	c-1.2,1.6-1.7,3.4-1.7,5.4v12.4l0,0v0.7c0,0.5-0.4,0.9-0.9,0.9c0,0,0,0,0,0h-2.6c-0.5,0-0.9-0.4-0.9-0.9V15.4l0,0v-0.6
	c0-0.5,0.4-0.9,0.8-0.9c0,0,0,0,0,0h2.5c0.5,0,0.9,0.4,0.9,0.9v0.6l0,0v0.4c1.7-1.5,3.9-2.3,6.2-2.3h0.5h0.1c0.4,0,0.8,0.4,0.8,0.8
	L145.2,17.1z M83.7,10.1c0,0.5-0.4,0.9-0.9,0.9h-2.5c-0.5,0-0.9-0.4-0.9-0.9V7.5c0-0.5,0.4-0.9,0.9-0.9c0,0,0,0,0,0h2.6
	c0.5,0,0.9,0.4,0.9,0.9c0,0,0,0,0,0L83.7,10.1z M76.7,34.2v4.2l0,0c0,0.3-0.2,0.5-0.5,0.6c0,0,0,0,0,0c-0.2,0-0.3,0-0.4-0.2l0,0
	l-0.1-0.1l0,0L61.8,27.6l0,0l-0.3-0.2l-3.1,2.6v8.2c0,0.5-0.4,0.9-0.9,0.9h-2.5c-0.5,0-0.9-0.4-0.9-0.9v-1.5l0,0V7.5
	c0-0.5,0.4-0.9,0.9-0.9c0,0,0,0,0,0h2.5c0.5,0,0.9,0.4,0.9,0.8c0,0,0,0,0,0v16.8l12.3-10l0,0c0.2-0.1,0.4-0.2,0.6-0.2h4.9
	c0.3,0,0.5,0.2,0.5,0.5v0c0,0.2-0.1,0.3-0.2,0.4l0,0l-0.7,0.6l-11,9l11.5,9.2C76.5,33.9,76.6,34,76.7,34.2L76.7,34.2z"/>
<path class="st1" d="M22,48.5v-6.2L7.5,31.8l0,0c-0.5-0.4-0.9-1-0.9-1.6v-4.8L22,36.5v-4.7L7.5,21.2l0,0l0,0l0,0
	c-0.5-0.4-0.8-1-0.8-1.6v-7.2L22,23.5v-7.9L3.2,2.3L2.4,1.7C2,1.4,1.4,1.5,1.1,1.9C1,2,0.9,2.2,0.9,2.4l0,0v29.9l0,0
	c0,0.9,0.5,1.8,1.3,2.3L22,48.5"/>
<path class="st2" d="M22,48.5v-6.2l14.4-10.5l0,0c0.5-0.4,0.9-1,0.9-1.6v-4.8L22,36.5v-4.7l14.4-10.5l0,0l0,0l0,0
	c0.5-0.4,0.8-1,0.8-1.6v-7.2L22,23.5v-7.9L40.6,2.3l0.8-0.6c0.4-0.3,1-0.3,1.3,0.1C42.9,2,43,2.2,43,2.4l0,0v29.9l0,0
	c0,0.9-0.5,1.8-1.3,2.3L22,48.5"/>
</svg>
